# xmcd CD database file
#
# Track frame offsets:
#	150
#	12642
#	29625
#	39192
#	51865
#	64460
#	74450
#	85172
#	95855
#	106885
#	117165
#	132540
#	146200
#	158982
#	168125
#	179710
#	193235
#	203030
#	206852
#	220117
#	230262
#	240152
#	251485
#	261370
#
# Disc length: 3655 seconds
#
# Revision: 0
# Processed by: cddbd v1.5PL3 Copyright (c) Steve Scherf et al.
# Submitted via: CDex 1.50
#
DISCID=700e4518
DTITLE=Carlos Lyra - Preciso Cantar - Eu and Elas
DYEAR=1972
DGENRE=Jazz
TTITLE0=Identidade
TTITLE1=Minha Namorada
TTITLE2=I See Me Passing By
TTITLE3=Rio Vermelho
TTITLE4=Primavera
TTITLE5=Ate Parece
TTITLE6=O Pregoeiro
TTITLE7=Cancao Que Morre No Ar
TTITLE8=Essa Passou
TTITLE9=Maria Minguem
TTITLE10=Mariana
TTITLE11=Marcha Da Quarta Feira De Cinzas
TTITLE12=Entrudo
TTITLE13=Afro-Latino
TTITLE14=Antes Do Tempo
TTITLE15=So Choro Quando Estou Feliz
TTITLE16=Nothing Night
TTITLE17=Os Olhos Da Madrugada
TTITLE18=Solo De Una Mujer
TTITLE19=Elas
TTITLE20=Isabel
TTITLE21=O Amor Mais Triste
TTITLE22=La Vou Eu
TTITLE23=Despedida
EXTD=YEAR: 1972
EXTT0=
EXTT1=
EXTT2=
EXTT3=
EXTT4=
EXTT5=
EXTT6=
EXTT7=
EXTT8=
EXTT9=
EXTT10=
EXTT11=
EXTT12=
EXTT13=
EXTT14=
EXTT15=
EXTT16=
EXTT17=
EXTT18=
EXTT19=
EXTT20=
EXTT21=
EXTT22=
EXTT23=
PLAYORDER=
